<svg width="192" height="355" viewBox="0 0 192 500" fill="none" xmlns="http://www.w3.org/2000/svg">
<path d="M90.2883 0.529581C83.9163 1.53073 77.9497 3.49523 72.6581 7.26684C38.8597 31.3598 59.3158 88.0069 101.622 81.2772C108.222 80.2282 115.194 77.925 120.51 73.7794C152.489 48.8527 131.595 -5.9596 90.2883 0.529581ZM36.1384 157.389H44.9535V407.99V467.178C44.9535 476.932 44.3238 487.471 52.5786 494.386C68.5566 507.772 90.549 495.456 91.4973 475.993C92.5135 455.108 91.5476 433.938 91.5476 413.028V289.616H99.1035V414.287C99.1035 435.196 98.13 456.369 99.1538 477.252C100.066 495.827 122.642 506.769 137.727 495.246C145.805 489.077 146.84 477.889 146.952 468.437C147.186 448.714 146.957 428.974 146.957 409.25V157.389H155.772V235.466C155.772 248.713 154.588 262.583 155.904 275.764C157.103 287.766 170.288 294.332 180.908 288.75C190.482 283.715 191.029 272.683 191.032 263.171V196.428C191.032 170.243 196.13 137.136 179.964 114.573C164.916 93.5668 142.549 93.165 119.252 93.165H72.6581C58.3776 93.165 42.9827 91.2358 29.8419 97.9768C1.53529 112.498 0.877941 140.971 0.877941 168.723V239.244C0.877941 254.298 -5.22086 285.593 14.7303 290.199C31.8681 294.156 36.1384 277.296 36.1384 264.43V157.389Z" fill="#020202"/>
</svg>
