<svg width="192" height="355" viewBox="0 0 228 499" fill="none" xmlns="http://www.w3.org/2000/svg">
<path d="M106.966 1.65395C101.277 2.71924 95.38 5.02569 90.6352 8.35221C55.8638 32.7308 78.7801 89.5215 120.785 81.9477C127.123 80.8058 133.253 78.7191 138.371 74.6942C170.661 49.3018 148.917 -6.20382 106.966 1.65395ZM73.0479 151.815C53.1579 214.016 39.2299 278.149 19.0296 340.25H69.2792V463.362C69.2792 477.906 67.6473 500.197 88.1227 500.882C109.686 501.602 108.223 479.715 108.223 464.618V340.25H119.529V463.362C119.529 478.116 117.196 500.668 138.372 500.818C158.913 500.963 157.216 479.013 157.216 464.618V340.25H208.722C188.791 277.921 173.689 214.044 153.447 151.815C167.694 151.983 167.998 168.117 171.21 179.452C177.87 202.946 184.961 226.32 191.663 249.801C194.286 258.991 197.422 271.086 208.722 272.275C211.162 272.533 213.895 272.478 216.259 271.768C236.638 265.647 224.362 237.95 220.38 224.676L199.576 155.583C191.79 129.633 184.542 105.589 155.96 96.2248C144.483 92.4649 131.448 94.0277 119.529 94.0277C91.6101 94.0277 62.9163 90.5114 43.7537 115.384C37.5039 123.494 34.8381 133.374 31.9438 143.021C27.7969 156.845 23.7581 170.7 19.458 184.477C12.9055 205.47 3.67363 228.021 0.56318 249.801C-0.956241 260.44 2.9842 271.402 15.2609 272.263C27.6248 273.128 32.4299 262.355 35.3595 252.314C42.4447 228.033 49.5437 203.754 56.5396 179.452C59.488 169.211 60.13 152.238 73.0479 151.815Z" fill="#020202"/>
</svg>
